<svg width="29" height="30" viewBox="0 0 29 30" fill="none" xmlns="http://www.w3.org/2000/svg">
<path d="M8.72006 22.118L8.71979 22.1178C6.00584 20.3216 4.38285 17.3041 4.38285 14.0514C4.38285 8.71934 8.71877 4.38265 14.051 4.38192C19.383 4.38265 23.7192 8.71901 23.7192 14.0514C23.7192 17.3042 22.0995 20.3216 19.3823 22.1178L19.3823 22.1178C18.8973 22.4388 18.6405 22.9171 18.6405 23.4965V26.9659C18.6405 28.5856 17.3243 29.9049 15.7049 29.9049H12.3971C10.7779 29.9049 9.46157 28.5856 9.46157 26.9659V23.4965C9.46157 22.9168 9.20121 22.4388 8.72006 22.118ZM11.2228 25.1631H11.1276V25.2582V26.9698C11.1276 27.672 11.6979 28.2422 12.4001 28.2422H15.7079H15.7112C16.4133 28.2422 16.9836 27.672 16.9836 26.9698V25.2582V25.1631H16.8885H11.2228ZM16.9869 23.4073C17.0146 22.359 17.5071 21.4238 18.3558 20.8113L18.468 20.7369C20.7172 19.2452 22.059 16.7486 22.059 14.0553C22.059 9.63967 18.4679 6.04859 14.0523 6.04859C9.63663 6.04859 6.04555 9.63967 6.04555 14.0553C6.04555 16.7486 7.38731 19.2452 9.63666 20.7337C10.5571 21.343 11.0888 22.3135 11.1177 23.4073L11.1201 23.4999H11.2128H16.8918H16.9844L16.9869 23.4073ZM4.17973 5.35444C3.87605 5.05076 3.85583 4.57263 4.11775 4.24827L4.18301 4.18301C4.5088 3.85723 5.03534 3.85767 5.35743 4.18271L5.35774 4.18301L6.1822 5.00748C6.50799 5.33326 6.50755 5.85981 6.18251 6.1819L6.1822 6.18221C6.01965 6.34476 5.80684 6.42477 5.5932 6.42477C5.37966 6.42477 5.16719 6.34486 5.0048 6.17952L5.00481 6.17951L5.0042 6.17891L4.17973 5.35444ZM23.9241 4.18247L23.9244 4.18276C24.2502 4.50854 24.2498 5.03509 23.9247 5.35718L23.9244 5.35749L23.1 6.18195C22.9374 6.34451 22.7246 6.42451 22.5109 6.42451C22.2982 6.42451 22.0851 6.34182 21.922 6.17865L21.8547 6.24592L21.9219 6.17865C21.5962 5.85287 21.5966 5.32632 21.9216 5.00423L21.9219 5.00392L22.7464 4.17946C23.0718 3.85406 23.5986 3.85692 23.9211 4.17946L23.9241 4.18247ZM18.7829 10.7749L18.8479 10.8405C19.1106 11.1678 19.0898 11.646 18.7867 11.9463L18.7864 11.9466L13.4042 17.3288C13.2476 17.4855 13.0377 17.5713 12.8152 17.5713C12.5937 17.5713 12.3834 17.4828 12.2259 17.3284C12.2258 17.3283 12.2257 17.3282 12.2256 17.3281L9.31753 14.4201C8.99174 14.0943 8.99219 13.5677 9.31722 13.2456L9.31753 13.2453C9.64332 12.9195 10.1699 12.92 10.492 13.245L10.4923 13.2453L12.748 15.5011L12.8153 15.5684L12.8826 15.5011L17.6084 10.7752C17.9342 10.4494 18.4608 10.4499 18.7829 10.7749ZM13.2208 2.09088V0.926739C13.2208 0.468107 13.5937 0.0951345 14.0524 0.0951345C14.511 0.0951345 14.884 0.468078 14.884 0.926739V2.09088C14.884 2.54951 14.511 2.92249 14.0524 2.92249C13.5937 2.92249 13.2208 2.54954 13.2208 2.09088ZM2.09088 13.2208C2.54951 13.2208 2.92248 13.5937 2.92248 14.0524C2.92248 14.511 2.54954 14.884 2.09088 14.884H0.926737C0.468105 14.884 0.0951345 14.511 0.0951345 14.0524C0.0951345 13.5937 0.468076 13.2208 0.926737 13.2208H2.09088ZM28.0123 14.0524C28.0123 14.511 27.6394 14.884 27.1807 14.884H26.0166C25.5579 14.884 25.1849 14.511 25.1849 14.0524C25.1849 13.5937 25.5579 13.2208 26.0166 13.2208H27.1807C27.6393 13.2208 28.0123 13.5937 28.0123 14.0524Z" fill="#972123" stroke="#FAF4F4" stroke-width="0.190269"/>
</svg>
