<svg width="18" height="18" viewBox="0 0 18 18" fill="none" xmlns="http://www.w3.org/2000/svg">
<path d="M9 16.25H9.00027C10.9224 16.2479 12.7652 15.4835 14.1243 14.1243C15.4835 12.7652 16.2479 10.9224 16.25 9.00027V9C16.25 7.56608 15.8248 6.16437 15.0282 4.97211C14.2315 3.77986 13.0992 2.85061 11.7745 2.30187C10.4497 1.75314 8.99196 1.60956 7.5856 1.88931C6.17924 2.16905 4.88741 2.85954 3.87348 3.87347C2.85955 4.8874 2.16905 6.17923 1.88931 7.58559C1.60957 8.99195 1.75314 10.4497 2.30188 11.7745C2.85061 13.0992 3.77986 14.2315 4.97212 15.0282C6.16437 15.8248 7.56609 16.25 9 16.25ZM11.5306 8.46919L11.531 8.46958C11.601 8.53926 11.6564 8.62205 11.6943 8.71322L11.9252 8.61735L11.6943 8.71322C11.7321 8.80438 11.7516 8.90212 11.7516 9.00083C11.7516 9.09954 11.7321 9.19728 11.6943 9.28844L11.9252 9.38432L11.6943 9.28845C11.6564 9.37961 11.601 9.4624 11.531 9.53208L11.5307 9.53239L8.19739 12.8657C8.05641 13.0067 7.86521 13.0859 7.66584 13.0859C7.46646 13.0859 7.27526 13.0067 7.13428 12.8657C6.9933 12.7247 6.9141 12.5335 6.9141 12.3342C6.9141 12.1348 6.9933 11.9436 7.13428 11.8026L9.76011 9.17677L9.93683 9.00005L9.76017 8.82328L7.136 6.19744L7.13595 6.19739C6.99497 6.05641 6.91577 5.8652 6.91577 5.66583C6.91577 5.46646 6.99497 5.27525 7.13595 5.13427C7.27692 4.9933 7.46813 4.9141 7.6675 4.9141C7.86687 4.9141 8.05808 4.9933 8.19906 5.13428L11.5306 8.46919ZM4.13876 1.72464C5.57765 0.763205 7.26932 0.250028 8.99986 0.25C11.3197 0.252609 13.5439 1.17533 15.1843 2.81574C16.8247 4.45618 17.7474 6.68035 17.75 9.00028C17.7499 10.7308 17.2368 12.4224 16.2754 13.8612C15.3139 15.3002 13.9473 16.4217 12.3485 17.0839C10.7496 17.7462 8.9903 17.9195 7.29296 17.5819C5.59563 17.2442 4.03653 16.4109 2.81282 15.1872C1.58911 13.9635 0.755753 12.4044 0.418133 10.707C0.0805122 9.0097 0.253791 7.25037 0.916058 5.65152C1.57832 4.05267 2.69983 2.6861 4.13876 1.72464Z" fill="#252525" stroke="white" stroke-width="0.5"/>
</svg>
