<svg width="21" height="22" viewBox="0 0 21 22" fill="none" xmlns="http://www.w3.org/2000/svg">
<path d="M10.5 19.4167H10.5003C12.7317 19.4143 14.8711 18.5268 16.4489 16.9489C18.0268 15.3711 18.9143 13.2317 18.9167 11.0003V11C18.9167 9.33534 18.423 7.70806 17.4982 6.32395C16.5734 4.93984 15.2589 3.86105 13.7209 3.22401C12.183 2.58698 10.4907 2.4203 8.85799 2.74506C7.22532 3.06982 5.72561 3.87142 4.54852 5.04852C3.37143 6.22561 2.56982 7.72531 2.24506 9.35799C1.9203 10.9907 2.08698 12.683 2.72402 14.2209C3.36106 15.7589 4.43984 17.0734 5.82395 17.9982C7.20807 18.923 8.83534 19.4167 10.5 19.4167ZM13.4819 10.3513L13.4823 10.3517C13.5677 10.4368 13.6355 10.538 13.6818 10.6494C13.7281 10.7609 13.7519 10.8803 13.7519 11.001C13.7519 11.1216 13.7281 11.2411 13.6818 11.3525C13.6355 11.4639 13.5677 11.5651 13.4823 11.6503L13.482 11.6506L9.59309 15.5395C9.4208 15.7118 9.18713 15.8085 8.94347 15.8085C8.69982 15.8085 8.46615 15.7118 8.29386 15.5395C8.12157 15.3672 8.02478 15.1335 8.02478 14.8899C8.02478 14.6462 8.12157 14.4125 8.29386 14.2402L11.3573 11.1768L11.5341 11.0001L11.3574 10.8233L8.29586 7.75981L8.29581 7.75975C8.12352 7.58746 8.02673 7.35379 8.02673 7.11014C8.02673 6.86649 8.12352 6.63281 8.29581 6.46053C8.46809 6.28824 8.70177 6.19145 8.94542 6.19145C9.18907 6.19145 9.42274 6.28824 9.59503 6.46053L13.4819 10.3513ZM4.80541 2.47744C6.49097 1.35118 8.47265 0.750028 10.4999 0.75C13.2174 0.75305 15.8228 1.83395 17.7444 3.75557C19.6661 5.67721 20.747 8.28266 20.75 11.0003C20.7499 13.0274 20.1488 15.0091 19.0226 16.6946C17.8963 18.3802 16.2954 19.694 14.4225 20.4698C12.5496 21.2456 10.4886 21.4485 8.50033 21.053C6.51202 20.6575 4.68565 19.6813 3.25216 18.2478C1.81867 16.8144 0.842454 14.988 0.446956 12.9997C0.0514571 11.0114 0.254441 8.95044 1.03024 7.07749C1.80604 5.20455 3.11981 3.60372 4.80541 2.47744Z" fill="white" stroke="#972123" stroke-width="0.5"/>
</svg>
