<svg width="26" height="29" viewBox="0 0 26 29" fill="none" xmlns="http://www.w3.org/2000/svg">
<path d="M24.5992 12.6094L18.4677 9.5437V9.54231C17.5369 9.07549 16.4249 9.15772 15.5721 9.7569L13.2506 11.3789L10.2894 9.60222C9.45753 9.10059 8.42773 9.06017 7.55963 9.49632L1.3447 12.6093C0.518373 13.019 -0.0027714 13.8621 1.10871e-05 14.7846V22.4139C-0.00277604 23.4089 0.603382 24.3049 1.52867 24.6727L11.7664 28.768C12.5398 29.0773 13.4037 29.0773 14.1771 28.768L24.4149 24.6727C25.3402 24.3049 25.9463 23.4088 25.9435 22.4139V14.7846C25.9463 13.8621 25.4255 13.0191 24.5992 12.6094ZM1.62227 22.4137V14.7843C1.62088 14.4764 1.79506 14.1963 2.06957 14.0597L8.28593 10.9509C8.658 10.7656 9.09831 10.7823 9.45504 10.9955L11.7961 12.4043L8.94919 14.397C8.36395 14.8094 8.1173 15.5563 8.34026 16.2378C8.82102 17.6897 10.3246 18.5411 11.817 18.2067L14.1357 17.6911C14.1469 17.6981 14.1524 17.7106 14.1636 17.7176L18.1293 20.1966V20.1952C18.3802 20.3527 18.5251 20.6342 18.5084 20.931C18.4902 21.2264 18.3119 21.4897 18.0443 21.6152L17.7782 21.7406V21.742C17.3169 21.9566 16.7818 21.9454 16.3304 21.7085L12.9721 19.9346C12.7812 19.8273 12.5554 19.8008 12.345 19.8622C12.1346 19.9235 11.9576 20.0684 11.8545 20.2621C11.7528 20.4558 11.7333 20.6829 11.8016 20.8919C11.8698 21.0996 12.0189 21.2723 12.2154 21.3685L15.203 22.9431L13.7901 23.6036C13.3609 23.8043 12.8648 23.8071 12.4342 23.6106L9.31006 22.192C9.11358 22.1029 8.89062 22.0945 8.68857 22.1697C8.48651 22.245 8.32349 22.3983 8.23431 22.5947C8.14513 22.7898 8.13816 23.0142 8.21341 23.2148C8.29005 23.4169 8.44333 23.5799 8.6398 23.6691L11.1731 24.8201L9.53024 25.5796L9.52884 25.5782C9.12613 25.7635 8.66488 25.776 8.25243 25.6144L2.13239 23.1661C1.82304 23.0448 1.61949 22.7453 1.62227 22.4137ZM24.3234 22.4137H24.322C24.3234 22.7453 24.1214 23.0435 23.812 23.1662L13.5743 27.2614C13.1883 27.4175 12.7563 27.4175 12.3703 27.2614L10.9671 26.6999L11.8547 26.2902C12.2574 26.1035 12.5654 25.7565 12.7033 25.3343C13.3067 25.443 13.9296 25.351 14.4758 25.0723L15.8902 24.4132H15.8888C16.2804 24.2292 16.5814 23.8976 16.7235 23.4907C16.8447 23.5032 16.966 23.5102 17.0886 23.5116C17.5651 23.5116 18.0347 23.4071 18.4667 23.205L18.7329 23.0796C19.5383 22.7006 20.072 21.9105 20.1249 21.0229C20.1779 20.1338 19.7403 19.2866 18.9851 18.8156L16.3835 17.1866L17.2028 17.0055H17.2014C17.4146 16.9623 17.6014 16.8355 17.7198 16.6529C17.8396 16.4704 17.8786 16.2474 17.8313 16.0356C17.7853 15.8224 17.6543 15.6385 17.469 15.5228C17.285 15.4086 17.0621 15.3723 16.8503 15.4225L11.4658 16.6195C10.7844 16.7714 10.0988 16.384 9.87864 15.7221L16.5017 11.0861V11.0847C16.8681 10.8297 17.3447 10.7948 17.7433 10.9941L23.8747 14.0598C24.1492 14.1963 24.3234 14.4764 24.322 14.7843L24.3234 22.4137Z" fill="#972123"/>
<path d="M12.9711 4.05358C12.5238 4.05358 12.1602 3.69129 12.1602 3.24259V0.810987C12.1602 0.362294 12.5238 0 12.9711 0C13.4184 0 13.7821 0.362294 13.7821 0.810987V3.24259C13.7821 3.45719 13.6971 3.66343 13.5438 3.81671C13.392 3.9686 13.1858 4.05358 12.9711 4.05358Z" fill="#972123"/>
<path d="M16.2162 4.86444C15.8887 4.86444 15.5933 4.66657 15.4679 4.3642C15.3425 4.06042 15.4121 3.71206 15.6435 3.48073L16.4544 2.66974C16.7722 2.36178 17.278 2.36596 17.5901 2.67949C17.9037 2.99163 17.9078 3.49747 17.5999 3.81657L16.7889 4.62755L16.7903 4.62616C16.6384 4.77805 16.4322 4.86444 16.2162 4.86444Z" fill="#972123"/>
<path d="M9.73302 4.86444C9.51703 4.86444 9.31079 4.77805 9.1589 4.62616L8.34791 3.81517L8.3493 3.81657C8.04135 3.49746 8.04553 2.99163 8.35906 2.67949C8.6712 2.36596 9.17704 2.36178 9.49474 2.66974L10.3057 3.48073C10.537 3.71204 10.6067 4.06041 10.4813 4.3642C10.3559 4.66659 10.0605 4.86444 9.73302 4.86444Z" fill="#972123"/>
</svg>
