<svg width="30" height="30" viewBox="0 0 30 30" fill="none" xmlns="http://www.w3.org/2000/svg">
<path fill-rule="evenodd" clip-rule="evenodd" d="M9.11307 26.1474V19.5296L4.355 15.649C4.34219 15.7467 4.32938 15.846 4.31816 15.9453C4.27492 16.3329 4.2541 16.7317 4.2541 17.1417C4.2541 20.1174 5.46008 22.8112 7.40919 24.7603C7.92808 25.2776 8.49807 25.7438 9.11307 26.1474ZM11.5459 3.57206C11.6228 3.86195 11.4514 4.15824 11.1632 4.23512C10.8749 4.31199 10.577 4.14063 10.5001 3.85235L10.0741 2.26519C9.99719 1.9753 10.1686 1.67901 10.4568 1.60213C10.7451 1.52526 11.043 1.69663 11.1199 1.98491L11.5459 3.57206ZM7.75821 4.98624C7.90876 5.2441 7.81907 5.57562 7.56122 5.72617C7.30336 5.87512 6.97184 5.78703 6.82129 5.52918L5.99969 4.10537C5.84914 3.84751 5.93882 3.51599 6.19668 3.36544C6.45453 3.21489 6.78606 3.30457 6.93661 3.56243L7.75821 4.98624ZM4.4686 7.33256C4.68001 7.54396 4.68001 7.88672 4.4686 8.09971C4.2572 8.31112 3.91285 8.31112 3.70145 8.09971L2.53873 6.93699C2.32732 6.72558 2.32732 6.38123 2.53873 6.16984C2.75014 5.95843 3.09448 5.95843 3.30588 6.16984L4.4686 7.33256ZM26.3541 8.09971C26.1427 8.31112 25.7983 8.31112 25.5869 8.09971C25.3755 7.88831 25.3755 7.54396 25.5869 7.33256L26.7497 6.17143C26.9611 5.96003 27.3038 5.96003 27.5168 6.17143C27.7282 6.38284 27.7282 6.72559 27.5168 6.93859L26.3541 8.09971ZM23.2342 5.52601C23.0853 5.78386 22.7553 5.87355 22.4975 5.72461C22.2396 5.57566 22.1499 5.24572 22.2989 4.98787L23.1205 3.56406C23.2694 3.30621 23.5994 3.21652 23.8572 3.36546C24.1151 3.51441 24.2048 3.84435 24.0558 4.1022L23.2342 5.52601ZM19.557 3.85078C19.4801 4.13906 19.1822 4.31044 18.8939 4.23356C18.6057 4.15668 18.4343 3.85879 18.5112 3.5705L18.9372 1.98334C19.0141 1.69346 19.312 1.52369 19.6003 1.60057C19.8885 1.67745 20.0599 1.97534 19.983 2.26363L19.557 3.85078ZM15.5707 3.18453C15.5707 3.48402 15.3288 3.72745 15.0277 3.72745C14.7283 3.72745 14.4848 3.48562 14.4848 3.18453L14.4864 1.54133C14.4864 1.24183 14.7299 1 15.0294 1C15.3288 1 15.5723 1.24184 15.5723 1.54133L15.5707 3.18453ZM3.39075 14.8614L1.78117 13.5497C1.32631 13.1797 1.06526 12.6576 1.01081 12.1147C0.956362 11.575 1.10691 11.0128 1.47686 10.5596L1.55694 10.4619C1.57136 10.4442 1.58737 10.425 1.60659 10.4026C1.98616 9.97018 2.49867 9.72676 3.02716 9.68191C3.55569 9.63866 4.10022 9.79241 4.54544 10.1559C4.56306 10.1704 4.58227 10.1864 4.6047 10.2056C4.85294 10.4218 5.15082 10.6877 5.45832 10.9583C8.38118 13.5449 12.0438 16.7898 15.031 16.7898C18.0163 16.7898 21.6809 13.545 24.6038 10.9583C24.9097 10.6877 25.2092 10.4218 25.4574 10.2056C25.4782 10.1864 25.499 10.1704 25.5166 10.1559C25.9619 9.79239 26.5064 9.63865 27.0349 9.68191C27.5634 9.72675 28.076 9.97019 28.4555 10.4026C28.4747 10.4234 28.4907 10.4442 28.5051 10.4619L28.5852 10.5596C28.9552 11.0128 29.1057 11.575 29.0513 12.1147C28.9968 12.6576 28.7342 13.1782 28.2809 13.5497L26.6713 14.8614C26.7338 15.1801 26.7834 15.502 26.8187 15.8255C26.8667 16.2628 26.8923 16.7016 26.8923 17.1404C26.8923 20.4156 25.5646 23.3802 23.4185 25.5262C21.2724 27.6721 18.3079 29 15.0328 29C11.7577 29 8.79294 27.6723 6.64699 25.5262C4.50104 23.3801 3.17317 20.4155 3.17317 17.1404C3.17317 16.7016 3.19719 16.2628 3.24684 15.8255C3.27888 15.502 3.32829 15.1801 3.39075 14.8614ZM25.7022 15.6478L20.9442 19.5283V26.1478C21.5592 25.7426 22.1293 25.2782 22.6482 24.7593C24.5973 22.8102 25.8033 20.1164 25.8033 17.1406C25.8033 16.7306 25.7809 16.3318 25.7392 15.9442C25.728 15.8449 25.715 15.7455 25.7022 15.6478ZM19.8597 26.774C18.4071 27.5043 16.7671 27.9143 15.0295 27.9143C13.2918 27.9143 11.6518 27.5027 10.1992 26.774V19.2738C10.1992 19.0896 10.1063 18.9263 9.96541 18.827L4.33609 14.2387C4.33128 14.2339 4.32488 14.2291 4.32007 14.2259L2.46387 12.7124C2.24125 12.5314 2.11473 12.2752 2.0875 12.0109C2.06028 11.7434 2.13395 11.4664 2.31652 11.2437L2.3966 11.1461C2.40621 11.1348 2.41422 11.1236 2.42063 11.1172C2.60641 10.9058 2.85785 10.7873 3.1157 10.7649C3.37676 10.7425 3.64424 10.8193 3.86203 10.9971C3.87324 11.0067 3.88445 11.0147 3.89086 11.0211C4.19516 11.287 4.4642 11.5256 4.73968 11.7691C7.80026 14.4789 11.6359 17.876 15.0266 17.876C18.4171 17.876 22.2545 14.4775 25.3136 11.7691C25.589 11.524 25.8597 11.287 26.1624 11.0211L26.1912 10.9971C26.409 10.8193 26.6781 10.7441 26.9375 10.7649C27.197 10.7873 27.4485 10.9058 27.6326 11.1172C27.639 11.1252 27.647 11.1348 27.6566 11.1461L27.7367 11.2437C27.9193 11.4664 27.993 11.7435 27.9657 12.0109C27.9385 12.2768 27.8104 12.5314 27.5894 12.7124L25.7332 14.2259C25.7284 14.2307 25.722 14.2355 25.7172 14.2403L20.0604 18.8544C19.929 18.9617 19.8602 19.1171 19.8602 19.274H19.8586L19.8597 26.774ZM15.0053 5.45717C13.7208 5.45717 12.5581 5.97767 11.7157 6.8201C10.8732 7.66253 10.3527 8.82525 10.3527 10.1097C10.3527 11.3942 10.8732 12.5569 11.7157 13.3993C12.5581 14.2417 13.7208 14.7622 15.0053 14.7622C16.2897 14.7622 17.4525 14.2417 18.2949 13.3993C19.1373 12.5569 19.6578 11.3942 19.6578 10.1097C19.6578 8.82525 19.1373 7.66249 18.2949 6.8201C17.4525 5.97767 16.2897 5.45717 15.0053 5.45717ZM17.5277 7.58725C16.8823 6.94183 15.9902 6.54142 15.0053 6.54142C14.0203 6.54142 13.1283 6.94021 12.4828 7.58725C11.8374 8.23268 11.437 9.12476 11.437 10.1097C11.437 11.0947 11.8358 11.9867 12.4828 12.6322C13.1283 13.2776 14.0203 13.6764 15.0053 13.6764C15.9902 13.6764 16.8823 13.2776 17.5277 12.6322C18.1732 11.9867 18.5736 11.0947 18.5736 10.1097C18.5736 9.12476 18.1748 8.23268 17.5277 7.58725Z" fill="#972123" stroke="#972123" stroke-width="0.4"/>
</svg>
