<svg width="29" height="22" viewBox="0 0 29 22" fill="none" xmlns="http://www.w3.org/2000/svg">
<path d="M26.5807 6.9818L15.7992 1.38756C14.7557 0.860301 13.513 0.871636 12.48 1.41784L2.36055 6.93651V6.93777C1.51875 7.32627 0.98732 8.15879 1.00023 9.06829C1.01187 9.9765 1.56658 10.7952 2.41874 11.1622L6.62905 13.347V17.0266C6.63034 17.9815 7.15793 18.8607 8.01005 19.3287C9.85654 20.3441 11.9254 20.9143 14.0436 20.9924C14.1949 20.9975 14.3449 21 14.4936 21C16.7643 20.9924 18.9962 20.4185 20.9771 19.3337C21.8357 18.867 22.3697 17.984 22.371 17.0253V13.5339L24.4865 12.3798V13.3321C24.1567 13.5062 23.9408 13.8329 23.9149 14.1987C23.8904 14.5645 24.0584 14.9164 24.3623 15.1321L23.5464 16.5108C24.3895 17.2058 25.6244 17.2058 26.4687 16.5108L25.6528 15.1321C25.9554 14.9164 26.1248 14.5645 26.099 14.1987C26.0744 13.8329 25.8584 13.5062 25.5287 13.3321V11.8121L26.6395 11.2067C27.4813 10.8169 28.0127 9.98565 27.9998 9.07615C27.9881 8.16794 27.4334 7.34928 26.5813 6.98222L26.5807 6.9818ZM20.9817 17.0252C20.9804 17.4932 20.7192 17.9233 20.299 18.1504C16.6991 20.1447 12.2898 20.1434 8.69124 18.1479C8.27487 17.9208 8.01753 17.4919 8.01753 17.0265V14.0672L9.43085 14.8013L13.1963 16.7754C14.241 17.309 15.4889 17.2976 16.5221 16.7451L20.069 14.79L20.9819 14.2917L20.9817 17.0252ZM25.96 10.0243L22.3704 11.982V11.9644L19.3795 13.613L15.8405 15.543H15.8418C15.2211 15.8646 14.4776 15.8709 13.8518 15.5606L10.0877 13.6067L6.62879 11.7928V11.8117L3.07027 9.96634C2.68492 9.80488 2.42245 9.44915 2.38882 9.04172C2.41339 8.64059 2.66295 8.28487 3.03792 8.11963L13.1574 2.60096C13.778 2.27804 14.5216 2.27174 15.1474 2.5833L25.9276 8.17753H25.9288C26.3142 8.33773 26.5767 8.69346 26.6103 9.10089C26.587 9.50202 26.3362 9.85774 25.9612 10.0242L25.96 10.0243Z" fill="#972123" stroke="#972123" stroke-width="0.2"/>
</svg>
