<svg width="25" height="27" viewBox="0 0 25 27" fill="none" xmlns="http://www.w3.org/2000/svg">
<path d="M13.758 1C8.56689 1 4.25522 4.86299 3.68508 10.0038C3.47387 10.2748 2.91576 11.0668 1.30709 13.5093C0.730746 14.4048 0.989373 15.602 1.88417 16.1787L3.33489 17.1133V20.1172C3.33489 21.6143 4.55288 22.8323 6.05029 22.8323H8.02702V26.2152C8.02702 26.4169 8.19044 26.58 8.3918 26.58H19.1228C19.3242 26.58 19.4876 26.4169 19.4876 26.2152V19.4935C22.2497 17.5974 23.8926 14.488 23.8926 11.1353C23.8934 5.54695 19.3468 1 13.758 1ZM18.9204 18.9966C18.8168 19.0649 18.7548 19.1812 18.7562 19.3056L18.7588 25.8508H8.75694V22.4679C8.75694 22.2661 8.59352 22.1031 8.39216 22.1031H6.05066C4.9556 22.1031 4.06481 21.2127 4.06481 20.1176V16.9149C4.06481 16.7908 4.0017 16.6756 3.89774 16.6081L2.27995 15.5656C1.7233 15.207 1.56244 14.4621 1.91883 13.9076C2.7341 12.67 4.0867 10.6429 4.28295 10.4175C4.34897 10.3573 4.39056 10.2745 4.39968 10.1847C4.88337 5.36492 8.9065 1.72992 13.758 1.72992C18.9444 1.72992 23.1638 5.9493 23.1638 11.1357C23.1638 14.3089 21.5774 17.2475 18.9204 18.9966Z" fill="#972123" stroke="#972123" stroke-width="0.7"/>
<path d="M15.7884 7C14.9162 7 14.1018 7.37674 13.5 8.0462C12.8989 7.37674 12.0845 7 11.2119 7C9.44096 7 8 8.5693 8 10.4983C8 14.0747 12.155 17 13.5032 17C15.009 17 19 14.0471 19 10.4986C19 8.56961 17.5594 7 15.7884 7ZM13.5035 16.3798C12.5495 16.3798 8.63608 13.7377 8.63608 10.4983C8.63608 8.91132 9.79158 7.62016 11.2122 7.62016C12.0063 7.62016 12.7444 8.02357 13.2381 8.72682C13.2975 8.81116 13.3954 8.86171 13.5003 8.86171C13.6052 8.86171 13.7034 8.81116 13.7626 8.72682C14.2562 8.02357 14.9947 7.62016 15.7888 7.62016C17.2091 7.62016 18.3649 8.91163 18.3649 10.4986C18.3642 13.8778 14.5194 16.3798 13.5035 16.3798Z" fill="#972123" stroke="#972123" stroke-width="0.7"/>
</svg>
