<svg width="21" height="25" viewBox="0 0 21 25" fill="none" xmlns="http://www.w3.org/2000/svg">
<path d="M1.3255 18.5358C1.14723 18.6547 1.03273 18.8359 1.00664 19.0475C0.977652 19.2663 1.04432 19.4852 1.19216 19.6518C3.59665 22.4158 7.0649 24 10.7085 24C14.3521 24 17.8249 22.4159 20.2248 19.6518C20.3697 19.4852 20.4393 19.262 20.4103 19.0431C20.3813 18.8315 20.2697 18.6503 20.0914 18.5315C19.7842 18.3242 19.3639 18.3837 19.116 18.6692C16.9971 21.1142 13.933 22.5172 10.7084 22.5172C7.48354 22.5172 4.41968 21.1142 2.30071 18.6692C2.05576 18.3837 1.63689 18.3242 1.32819 18.5315L1.3255 18.5358Z" fill="#972123" stroke="#972123" stroke-width="0.3"/>
<path d="M14.1529 14.8993C13.2036 15.7457 11.9788 16.2124 10.7063 16.2124C9.43377 16.2124 8.20906 15.7443 7.25973 14.8993C7.11479 14.7689 6.93363 14.6993 6.74377 14.6993C6.59884 14.6993 6.46115 14.7399 6.34376 14.8181C6.15099 14.9486 6.0278 15.1558 6.0133 15.3863C5.99881 15.6124 6.08432 15.8283 6.24665 15.9761C7.47426 17.082 9.05839 17.6936 10.7065 17.6936C12.3546 17.6936 13.9385 17.0849 15.1663 15.9761C15.333 15.8283 15.4185 15.6124 15.3997 15.3863C15.3808 15.1529 15.262 14.9442 15.0692 14.8181C14.7909 14.6326 14.4127 14.666 14.1532 14.8964L14.1529 14.8993Z" fill="#972123" stroke="#972123" stroke-width="0.3"/>
<path d="M19.6105 5.45242C19.6105 2.99576 17.6147 1 15.158 1H6.2532C3.79654 1 1.80078 2.99576 1.80078 5.45242C1.80078 7.90908 3.79654 9.90484 6.2532 9.90484H15.158C17.6147 9.90484 19.6105 7.90908 19.6105 5.45242ZM15.158 8.4207H6.2532C4.61686 8.4207 3.28492 7.08876 3.28492 5.45242C3.28492 3.81608 4.61686 2.48414 6.2532 2.48414H15.158C16.7944 2.48414 18.1263 3.81608 18.1263 5.45242C18.1263 7.08876 16.7944 8.4207 15.158 8.4207Z" fill="#972123" stroke="#972123" stroke-width="0.3"/>
</svg>
