<svg width="63" height="45" viewBox="0 0 63 45" fill="none" xmlns="http://www.w3.org/2000/svg">
<circle cx="43.283" cy="8.88332" r="6.45" fill="#FAF4F4"/>
<path d="M28.5823 35.5C32.1823 34.7 32.0823 31.1666 31.5823 29.5L36.082 29V42L49.582 41.5L50.082 29L54.082 29.5V39.5C56.482 44.3 59.4154 42.1667 60.582 40.5V27.5C60.582 22.7 55.9154 20.5 53.582 20L45.082 20.5L43.082 24.5L40.082 20H30.082C26.882 20 25.082 24 24.582 26L20.0823 24.5C16.4823 23.3 16.2489 27 16.5823 29L20.0823 32.5C24.4823 36.5 27.5823 36.1666 28.5823 35.5Z" fill="#FAF4F4"/>
<path d="M51.9111 19.1046H46.5224C45.2296 19.1046 44.0643 19.8231 43.4872 20.98L42.862 22.2303L42.2369 20.98C41.657 19.823 40.4944 19.1046 39.2017 19.1046H31.5502C27.8559 19.1046 24.7444 21.6476 23.8728 25.0732L22.4075 24.0944C21.1968 23.2854 19.7117 23.0959 18.3398 23.5683C17.8561 23.7352 17.4318 23.9954 17.0414 24.2953L2.8523 12.5756C2.36859 12.1739 1.65578 12.2446 1.25974 12.7283C0.860894 13.2092 0.928784 13.922 1.4125 14.3209L15.6436 26.0768C15.5842 26.2126 15.5021 26.3399 15.454 26.4841C14.8063 28.4246 15.4908 30.5235 17.1541 31.7117L23.7366 36.413C25.4677 37.652 27.7194 37.8132 29.6147 36.8401C31.5071 35.8642 32.6838 33.9379 32.6838 31.8107V30.4217H34.9468V42.8685C34.9468 43.4937 35.4532 44 36.0783 44H49.6562C50.2814 44 50.7877 43.4937 50.7877 42.8685V30.4217H53.0507V39.4737C53.0507 41.9686 55.0817 43.9996 57.5766 43.9996C60.0716 43.9996 62.1026 41.9686 62.1026 39.4737V29.2906C62.1026 23.6756 57.5342 19.1076 51.9196 19.1076L51.9111 19.1046ZM59.8319 39.4714C59.8319 40.7189 58.8164 41.7344 57.5689 41.7344C56.3214 41.7344 55.3059 40.7189 55.3059 39.4714V29.2884C55.3059 28.6632 54.7996 28.1569 54.1745 28.1569H49.6485C49.0233 28.1569 48.517 28.6632 48.517 29.2884V41.7351H37.2021V29.2884C37.2021 28.6632 36.6957 28.1569 36.0706 28.1569H31.5446C30.9195 28.1569 30.4131 28.6632 30.4131 29.2884V31.8088C30.4131 33.1044 29.7258 34.233 28.5716 34.8271C27.4204 35.4211 26.1021 35.3249 25.0442 34.5725L18.4618 29.8711C17.6131 29.2658 17.2653 28.1909 17.5934 27.2008C17.8282 26.4964 18.3656 25.9533 19.0672 25.7129C19.7687 25.4753 20.5268 25.5686 21.1435 25.9816L24.125 27.9702C24.4729 28.2022 24.9199 28.222 25.2876 28.0268C25.6553 27.8288 25.8844 27.4469 25.8844 27.0282C25.8844 23.9081 28.4218 21.3708 31.5419 21.3708H39.1933C39.6261 21.3708 40.0136 21.6112 40.206 21.9959L41.8438 25.2716C42.2285 26.0382 43.4844 26.0382 43.8692 25.2716L45.507 21.9959C45.6993 21.6112 46.0869 21.3708 46.5196 21.3708H51.9084C56.2759 21.3708 59.8292 24.9236 59.8292 29.2916V39.4746L59.8319 39.4714ZM42.8592 16.8416C47.2267 16.8416 50.78 13.2888 50.78 8.9208C50.78 4.55285 47.2271 1 42.8592 1C38.4912 1 34.9384 4.55285 34.9384 8.9208C34.9384 13.2888 38.4912 16.8416 42.8592 16.8416ZM42.8592 3.26371C45.9793 3.26371 48.5166 5.80107 48.5166 8.92116C48.5166 12.0413 45.9793 14.5786 42.8592 14.5786C39.7391 14.5786 37.2017 12.0413 37.2017 8.92116C37.2017 5.80107 39.7391 3.26371 42.8592 3.26371Z" fill="#991C18" stroke="#991C18" stroke-width="0.2"/>
</svg>
