<svg width="43" height="43" viewBox="0 0 43 43" fill="none" xmlns="http://www.w3.org/2000/svg">
<path d="M9.84645 30.942L16.6515 29.581V26.1785C18.8288 27.8117 23.9102 27.3127 26.1788 26.859V29.581L32.3033 30.942C35.5697 24.9536 35.479 16.1978 35.0253 12.5685C33.3921 3.85809 25.2714 1.68048 21.4153 1.68048C12.1604 1.68048 8.48555 8.93916 7.80495 12.5685C6.71615 18.5569 8.71229 27.3127 9.84645 30.942Z" fill="#FAF4F4"/>
<path d="M1.51038 41.8301H41.3197C41.4553 41.8301 41.5854 41.776 41.681 41.6798C41.7772 41.5839 41.8306 41.4535 41.8301 41.3177C41.8256 40.1517 41.708 38.039 41.4981 37.1047C41.1761 35.6759 40.3635 33.4397 38.3671 32.1235V29.6573C38.3671 27.5798 36.8047 25.8635 34.794 25.6129C36.7629 17.2084 36.1428 10.7777 32.9189 6.46368C28.7118 0.834184 21.6912 0.992677 21.4315 1.00215C21.1349 0.994422 14.1198 0.836925 9.91314 6.46792C6.69024 10.7821 6.06981 17.2114 8.03671 25.6128C6.02564 25.8631 4.46298 27.5796 4.46298 29.6573V32.1217C2.46783 33.4367 1.65423 35.675 1.33195 37.1052C1.12211 38.039 1.00449 40.1517 1 41.3177C0.999505 41.4535 1.05284 41.5839 1.14903 41.6798C1.24472 41.776 1.37481 41.8301 1.51038 41.8301ZM13.9672 30.8171V40.8093H9.32352V31.733L13.9672 30.8171ZM21.415 26.8769C16.2961 26.8769 12.1305 22.2905 12.105 16.6427C12.2098 16.2446 12.9518 13.915 16.0681 13.3736C19.2908 12.8139 20.7611 11.4891 21.415 10.5531C22.069 11.4891 23.5393 12.8139 26.762 13.3736C29.8813 13.9155 30.6219 16.2494 30.7251 16.6424C30.6997 22.2903 26.5341 26.8769 21.415 26.8769ZM21.415 27.8976C22.9454 27.8976 24.3976 27.5289 25.7054 26.8729V29.6319C24.7105 30.7532 23.1104 31.4229 21.3757 31.4229C19.6206 31.4229 18.0092 30.7408 17.0165 29.5987V26.8194C18.352 27.5097 19.8426 27.8976 21.415 27.8976ZM16.325 30.3522C17.5145 31.6627 19.3713 32.4436 21.3757 32.4436C23.3745 32.4436 25.2334 31.6638 26.4229 30.3566L27.8421 30.6335V40.8093H14.988V30.6158L16.325 30.3522ZM33.5066 31.7383V40.8093H28.8628V30.8326L33.5066 31.7383ZM40.5023 37.329C40.6553 38.009 40.7714 39.5808 40.8018 40.8093H34.5273V31.9374L36.0046 32.2255C39.0649 32.8824 40.136 35.7052 40.5023 37.329ZM37.3463 29.6573V31.5824C36.995 31.4369 36.6195 31.3137 36.2095 31.2257L33.373 30.6725C33.8262 29.2731 34.2182 27.9198 34.5502 26.6121C36.114 26.746 37.3463 28.0595 37.3463 29.6573ZM10.7241 7.08793C14.6052 1.88258 21.3338 2.02263 21.431 2.02238C21.5013 2.02488 28.2264 1.87909 32.108 7.0842C35.7483 11.9652 35.8306 19.8372 32.3652 30.4759L26.7261 29.3759V26.2855C29.7324 24.3063 31.7482 20.7019 31.7482 16.5913C31.7482 16.5727 31.7395 16.557 31.7376 16.5389C31.7358 16.5211 31.7409 16.5043 31.7372 16.4864C31.7083 16.3473 30.9751 13.0696 26.9365 12.3678C22.537 11.6037 21.9349 9.40178 21.913 9.31431C21.8611 9.0838 21.6568 8.92232 21.4205 8.91933C21.1922 8.90064 20.9759 9.07932 20.9186 9.30833C20.8952 9.40179 20.2931 11.6037 15.8936 12.3678C11.855 13.0696 11.1218 16.3473 11.0929 16.4864C11.0891 16.5044 11.0943 16.5213 11.0925 16.5392C11.0906 16.5572 11.0819 16.5728 11.0819 16.5913C11.0819 20.6523 13.0496 24.2187 15.9958 26.2127V29.3767L10.4624 30.4681C7.00175 19.8367 7.08558 11.9687 10.7241 7.08793ZM5.48374 29.6573C5.48374 28.0593 6.71628 26.7457 8.28049 26.6121C8.61181 27.918 9.00307 29.2694 9.45529 30.6667L6.61115 31.2277C6.20472 31.315 5.83244 31.4372 5.48374 31.5813V29.6573ZM2.32778 37.3295C2.69411 35.7052 3.7652 32.8824 6.81699 32.2273L8.30276 31.9343V40.8093H2.02823C2.05863 39.5808 2.17477 38.009 2.32778 37.3295Z" fill="#991C18" stroke="#991C18"/>
</svg>
