<svg width="23" height="30" viewBox="0 0 23 30" fill="none" xmlns="http://www.w3.org/2000/svg">
<path d="M21.0046 9.49045C20.712 7.55229 19.7304 5.81404 18.2958 4.49323C16.9213 3.22778 15.1305 2.34573 13.1284 2.03053C14.1572 2.91963 14.9193 4.04866 15.3677 5.28815C15.823 6.54655 15.9564 7.92255 15.7216 9.28099C15.8124 9.22924 15.9068 9.17985 16.0036 9.13398C16.6454 8.82821 17.404 8.65651 18.198 8.65651C18.9919 8.65651 19.7517 8.82939 20.3935 9.13398C20.6106 9.23748 20.817 9.35755 21.0046 9.49045ZM11.0471 2.25866C9.83783 3.09721 8.95887 4.27326 8.48107 5.59154C8.00209 6.91226 7.92541 8.37765 8.31826 9.79363C8.60023 9.53254 8.93294 9.31026 9.30455 9.13386C9.82246 8.88688 10.4194 8.72692 11.0471 8.6752L11.0471 2.25866ZM11.9532 8.67514C12.5808 8.72806 13.1766 8.88683 13.6945 9.1338C14.0662 9.31021 14.4 9.53248 14.6808 9.79357C15.0737 8.37876 14.9958 6.9122 14.5192 5.59148C14.0414 4.27194 13.1624 3.09585 11.9532 2.25739L11.9532 8.67514ZM9.87204 2.03044C7.86995 2.34446 6.07801 3.22769 4.7047 4.49314C3.26891 5.81503 2.28851 7.55205 1.99591 9.49036C2.18467 9.35629 2.38878 9.2375 2.60702 9.13401C3.24882 8.82824 4.0086 8.65653 4.80141 8.65653C5.59541 8.65653 6.35518 8.82942 6.99698 9.13401C7.09372 9.17987 7.18811 9.22927 7.27895 9.28101C7.04299 7.92266 7.17631 6.54784 7.63289 5.28818C8.08239 4.04742 8.84452 2.91957 9.87331 2.02935L9.87204 2.03044ZM7.16563 22.9632H8.60378L1.06857 10.9389C1.01548 10.8531 0.994243 10.7566 1.00132 10.6637C1.01548 7.99168 2.19408 5.57617 4.09224 3.82844C5.99053 2.08079 8.60962 1 11.5 1C14.3905 1 17.0095 2.08079 18.9078 3.82844C20.806 5.57608 21.9857 7.99289 21.9987 10.6649C22.0058 10.7578 21.9845 10.8543 21.9314 10.9389L14.3962 22.9632H15.8344C16.0845 22.9632 16.2874 23.1655 16.2874 23.4148V26.9407C16.2874 27.5052 16.055 28.0215 15.681 28.3943L15.6786 28.3967C15.3046 28.7683 14.7891 29 14.2228 29H8.77819C8.21072 29 7.69398 28.7683 7.31999 28.3943C6.94599 28.0227 6.7124 27.5076 6.7124 26.9407V23.4148C6.7124 23.1655 6.91552 22.9632 7.16563 22.9632ZM9.67032 22.9632H10.3487L7.72368 10.8697C7.47711 10.4921 7.08541 10.1758 6.60643 9.9488C6.0826 9.69948 5.4585 9.55951 4.80017 9.55951C4.14185 9.55951 3.51775 9.70064 2.99392 9.9488C2.58334 10.144 2.23768 10.4039 1.99228 10.7133L9.66914 22.9633L9.67032 22.9632ZM11.2748 22.9632H11.7255L14.3682 10.7896C14.1205 10.4474 13.7512 10.1604 13.3064 9.94868C12.7861 9.70171 12.1668 9.56057 11.512 9.55939H11.4884C10.8336 9.56174 10.2142 9.7017 9.69393 9.94868C9.24914 10.1604 8.87989 10.4485 8.63331 10.7896L11.276 22.9632H11.2748ZM12.6516 22.9632H13.33L21.0069 10.7131C20.7615 10.405 20.4146 10.1451 20.0041 9.94865C19.4802 9.69933 18.8561 9.55936 18.1978 9.55936C17.5395 9.55936 16.9154 9.70049 16.3916 9.94865C15.9126 10.1768 15.5221 10.492 15.2755 10.8695L12.6505 22.9642L12.6516 22.9632ZM15.3828 23.8664H7.6187V26.9407C7.6187 27.2582 7.74965 27.5475 7.95965 27.7569C8.16848 27.9674 8.45869 28.0967 8.77841 28.0967H14.223C14.5427 28.0967 14.833 27.9662 15.0418 27.7592C15.253 27.5499 15.3827 27.2594 15.3827 26.9406L15.3828 23.8664Z" fill="#972123" stroke="#972123" stroke-width="0.3"/>
</svg>
