<svg width="25" height="27" viewBox="0 0 25 27" fill="none" xmlns="http://www.w3.org/2000/svg">
<path d="M13.758 1C8.56689 1 4.25522 4.86299 3.68508 10.0038C3.47387 10.2748 2.91576 11.0668 1.30709 13.5093C0.730746 14.4048 0.989373 15.602 1.88417 16.1787L3.33489 17.1133V20.1172C3.33489 21.6143 4.55288 22.8323 6.05029 22.8323H8.02702V26.2152C8.02702 26.4169 8.19044 26.58 8.3918 26.58H19.1228C19.3242 26.58 19.4876 26.4169 19.4876 26.2152V19.4935C22.2497 17.5974 23.8926 14.488 23.8926 11.1353C23.8934 5.54695 19.3468 1 13.758 1ZM18.9204 18.9966C18.8168 19.0649 18.7548 19.1812 18.7562 19.3056L18.7588 25.8508H8.75694V22.4679C8.75694 22.2661 8.59352 22.1031 8.39216 22.1031H6.05066C4.9556 22.1031 4.06481 21.2127 4.06481 20.1176V16.9149C4.06481 16.7908 4.0017 16.6756 3.89774 16.6081L2.27995 15.5656C1.7233 15.207 1.56244 14.4621 1.91883 13.9076C2.7341 12.67 4.0867 10.6429 4.28295 10.4175C4.34897 10.3573 4.39056 10.2745 4.39968 10.1847C4.88337 5.36492 8.9065 1.72992 13.758 1.72992C18.9444 1.72992 23.1638 5.9493 23.1638 11.1357C23.1638 14.3089 21.5774 17.2475 18.9204 18.9966Z" fill="#972123" stroke="#972123" stroke-width="0.7"/>
<path d="M16.5292 5.59253C15.5283 5.59253 14.5937 6.03573 13.9032 6.82329C13.2134 6.03573 12.2788 5.59253 11.2775 5.59253C9.24533 5.59253 7.5918 7.43867 7.5918 9.70795C7.5918 13.9153 12.3598 17.3566 13.9068 17.3566C15.6348 17.3566 20.2145 13.8828 20.2145 9.70831C20.2145 7.43903 18.5614 5.59253 16.5292 5.59253ZM13.9072 16.627C12.8125 16.627 8.32172 13.5188 8.32172 9.70795C8.32172 7.84102 9.64768 6.32208 11.2779 6.32208C12.1891 6.32208 13.0361 6.79666 13.6026 7.62397C13.6708 7.72319 13.7832 7.78265 13.9035 7.78265C14.0239 7.78265 14.1366 7.72319 14.2045 7.62397C14.771 6.79666 15.6184 6.32208 16.5296 6.32208C18.1594 6.32208 19.4857 7.84138 19.4857 9.70831C19.485 13.6837 15.073 16.627 13.9072 16.627Z" fill="#972123" stroke="#972123" stroke-width="0.7"/>
</svg>
