<svg width="11" height="11" viewBox="0 0 11 11" fill="none" xmlns="http://www.w3.org/2000/svg">
<path d="M10.7513 0.809153V7.82181C10.7513 8.03641 10.6661 8.24222 10.5144 8.39397C10.3626 8.54571 10.1568 8.63096 9.9422 8.63096C9.72759 8.63096 9.52178 8.54571 9.37004 8.39397C9.21829 8.24222 9.13304 8.03641 9.13304 7.82181V2.76461L1.88371 10.0126C1.7317 10.1646 1.52553 10.25 1.31056 10.25C1.09558 10.25 0.889415 10.1646 0.737407 10.0126C0.585398 9.86058 0.5 9.65442 0.5 9.43944C0.5 9.22447 0.585398 9.0183 0.737407 8.86629L7.98674 1.61831H2.92954C2.71494 1.61831 2.50912 1.53306 2.35738 1.38131C2.20563 1.22956 2.12038 1.02375 2.12038 0.809153C2.12038 0.594552 2.20563 0.388741 2.35738 0.236995C2.50912 0.0852497 2.71494 0 2.92954 0H9.9422C10.1568 0 10.3626 0.0852497 10.5144 0.236995C10.6661 0.388741 10.7513 0.594552 10.7513 0.809153Z" fill="#991C18"/>
</svg>
