<svg width="12" height="12" viewBox="0 0 12 12" fill="none" xmlns="http://www.w3.org/2000/svg">
<path d="M11.7705 10.662C11.9175 10.809 12.0001 11.0083 12.0001 11.2162C12.0001 11.4241 11.9175 11.6234 11.7705 11.7704C11.6235 11.9174 11.4242 12 11.2163 12C11.0084 12 10.8091 11.9174 10.6621 11.7704L6.0007 7.10776L1.33802 11.7691C1.19103 11.9161 0.99167 11.9987 0.783795 11.9987C0.575919 11.9987 0.376558 11.9161 0.229568 11.7691C0.0825782 11.6221 3.09758e-09 11.4228 0 11.2149C-3.09758e-09 11.007 0.0825782 10.8077 0.229568 10.6607L5.44582 5.44442C5.51851 5.37148 5.60488 5.3136 5.69999 5.27411C5.7951 5.23462 5.89706 5.21429 6.00004 5.21429C6.10302 5.21429 6.20499 5.23462 6.3001 5.27411C6.3952 5.3136 6.48158 5.37148 6.55427 5.44442L11.7705 10.662ZM1.33802 6.55418L6.0007 1.89151L10.6634 6.55483C10.8104 6.70182 11.0097 6.7844 11.2176 6.7844C11.4255 6.7844 11.6248 6.70182 11.7718 6.55483C11.9188 6.40784 12.0014 6.20848 12.0014 6.00061C12.0014 5.79273 11.9188 5.59337 11.7718 5.44638L6.55557 0.230132C6.48288 0.157188 6.39651 0.0993108 6.3014 0.0598196C6.20629 0.0203284 6.10433 0 6.00135 0C5.89837 0 5.7964 0.0203284 5.70129 0.0598196C5.60619 0.0993108 5.51981 0.157188 5.44712 0.230132L0.230872 5.44638C0.0838821 5.59337 0.00130409 5.79273 0.00130409 6.00061C0.00130409 6.20848 0.0838821 6.40784 0.230872 6.55483C0.377862 6.70182 0.577223 6.7844 0.785099 6.7844C0.992974 6.7844 1.19234 6.70182 1.33933 6.55483L1.33802 6.55418Z" fill="white"/>
</svg>
