<svg width="25" height="27" viewBox="0 0 25 27" fill="none" xmlns="http://www.w3.org/2000/svg">
<path d="M13.758 1C8.56689 1 4.25522 4.86299 3.68508 10.0038C3.47387 10.2748 2.91576 11.0668 1.30709 13.5093C0.730746 14.4048 0.989373 15.602 1.88417 16.1787L3.33489 17.1133V20.1172C3.33489 21.6143 4.55288 22.8323 6.05029 22.8323H8.02702V26.2152C8.02702 26.4169 8.19044 26.58 8.3918 26.58H19.1228C19.3242 26.58 19.4876 26.4169 19.4876 26.2152V19.4935C22.2497 17.5974 23.8926 14.488 23.8926 11.1353C23.8934 5.54695 19.3468 1 13.758 1ZM18.9204 18.9966C18.8168 19.0649 18.7548 19.1812 18.7562 19.3056L18.7588 25.8508H8.75694V22.4679C8.75694 22.2661 8.59352 22.1031 8.39216 22.1031H6.05066C4.9556 22.1031 4.06481 21.2127 4.06481 20.1176V16.9149C4.06481 16.7908 4.0017 16.6756 3.89774 16.6081L2.27995 15.5656C1.7233 15.207 1.56244 14.4621 1.91883 13.9076C2.7341 12.67 4.0867 10.6429 4.28295 10.4175C4.34897 10.3573 4.39056 10.2745 4.39968 10.1847C4.88337 5.36492 8.9065 1.72992 13.758 1.72992C18.9444 1.72992 23.1638 5.9493 23.1638 11.1357C23.1638 14.3089 21.5774 17.2475 18.9204 18.9966Z" fill="#972123" stroke="#972123" stroke-width="0.7"/>
<path d="M12.9991 8.24727C12.4549 8.24727 11.9228 8.40866 11.4703 8.71104C11.0177 9.01342 10.665 9.44321 10.4567 9.94604C10.2485 10.4489 10.194 11.0022 10.3001 11.536C10.4063 12.0698 10.6684 12.5602 11.0533 12.945C11.4381 13.3299 11.9285 13.592 12.4623 13.6981C12.9961 13.8043 13.5494 13.7498 14.0522 13.5415C14.5551 13.3333 14.9849 12.9805 15.2872 12.528C15.5896 12.0755 15.751 11.5434 15.751 10.9991C15.7503 10.2695 15.4601 9.57002 14.9442 9.05411C14.4283 8.5382 13.7287 8.24803 12.9991 8.24727ZM12.9991 12.8337C12.6363 12.8337 12.2816 12.7261 11.9799 12.5245C11.6782 12.323 11.4431 12.0364 11.3042 11.7012C11.1654 11.366 11.129 10.9971 11.1998 10.6412C11.2706 10.2854 11.4453 9.95847 11.7019 9.7019C11.9585 9.44532 12.2854 9.2706 12.6412 9.19981C12.9971 9.12902 13.366 9.16535 13.7012 9.30421C14.0364 9.44306 14.323 9.67821 14.5245 9.9799C14.7261 10.2816 14.8337 10.6363 14.8337 10.9991C14.8337 11.4857 14.6404 11.9523 14.2964 12.2964C13.9523 12.6404 13.4857 12.8337 12.9991 12.8337ZM18.0442 11.123C18.0465 11.0404 18.0465 10.9579 18.0442 10.8753L18.8996 9.80666C18.9445 9.75055 18.9755 9.6847 18.9902 9.61439C19.005 9.54409 19.003 9.47131 18.9845 9.40191C18.8442 8.87481 18.6345 8.36872 18.3607 7.89698C18.3249 7.83524 18.2751 7.78273 18.2154 7.74361C18.1557 7.7045 18.0876 7.67986 18.0167 7.67167L16.6568 7.52032C16.6003 7.46069 16.5429 7.40336 16.4848 7.34833L16.3243 5.985C16.3161 5.91403 16.2913 5.84598 16.2521 5.78625C16.2129 5.72653 16.1603 5.6768 16.0984 5.64102C15.6265 5.36775 15.1205 5.1582 14.5935 5.01783C14.5241 4.99937 14.4513 4.99748 14.381 5.01232C14.3106 5.02716 14.2448 5.05831 14.1888 5.10326L13.123 5.95404C13.0404 5.95404 12.9579 5.95404 12.8753 5.95404L11.8067 5.10039C11.7506 5.05554 11.6847 5.0245 11.6144 5.00976C11.5441 4.99502 11.4713 4.997 11.4019 5.01554C10.8749 5.15602 10.3688 5.36576 9.89698 5.6393C9.83524 5.67515 9.78273 5.72491 9.74361 5.78463C9.7045 5.84434 9.67986 5.91237 9.67167 5.98328L9.52032 7.34546C9.46069 7.40241 9.40336 7.45974 9.34833 7.51745L7.985 7.67396C7.91403 7.68222 7.84598 7.70694 7.78625 7.74616C7.72653 7.78538 7.6768 7.838 7.64102 7.89985C7.36775 8.37177 7.1582 8.87782 7.01783 9.40478C6.99937 9.47422 6.99748 9.54702 7.01232 9.61733C7.02716 9.68763 7.05831 9.75347 7.10326 9.80953L7.95404 10.8753C7.95404 10.9579 7.95404 11.0404 7.95404 11.123L7.10039 12.1916C7.05554 12.2477 7.0245 12.3136 7.00976 12.3839C6.99502 12.4542 6.997 12.527 7.01554 12.5964C7.15577 13.1235 7.36553 13.6296 7.6393 14.1013C7.67515 14.163 7.72491 14.2156 7.78463 14.2547C7.84434 14.2938 7.91237 14.3184 7.98328 14.3266L9.34317 14.478C9.40011 14.5376 9.45744 14.5949 9.51516 14.65L9.67396 16.0133C9.68222 16.0842 9.70694 16.1523 9.74616 16.212C9.78538 16.2717 9.838 16.3215 9.89985 16.3573C10.3718 16.6305 10.8778 16.8401 11.4048 16.9804C11.4742 16.9989 11.547 17.0008 11.6173 16.986C11.6876 16.9711 11.7535 16.94 11.8095 16.895L12.8753 16.0442C12.9579 16.0465 13.0404 16.0465 13.123 16.0442L14.1916 16.8996C14.2477 16.9445 14.3136 16.9755 14.3839 16.9902C14.4542 17.005 14.527 17.003 14.5964 16.9845C15.1235 16.8442 15.6296 16.6345 16.1013 16.3607C16.163 16.3249 16.2156 16.2751 16.2547 16.2154C16.2938 16.1557 16.3184 16.0876 16.3266 16.0167L16.478 14.6568C16.5376 14.6003 16.5949 14.5429 16.65 14.4848L18.0133 14.3243C18.0842 14.3161 18.1523 14.2913 18.212 14.2521C18.2717 14.2129 18.3215 14.1603 18.3573 14.0984C18.6305 13.6265 18.8401 13.1205 18.9804 12.5935C18.9989 12.5241 19.0008 12.4513 18.986 12.381C18.9711 12.3106 18.94 12.2448 18.895 12.1888L18.0442 11.123ZM17.1212 10.7503C17.131 10.9161 17.131 11.0822 17.1212 11.248C17.1144 11.3614 17.1499 11.4734 17.221 11.5621L18.0345 12.5786C17.9411 12.8753 17.8216 13.1631 17.6773 13.4386L16.3816 13.5853C16.2688 13.5978 16.1646 13.6518 16.0893 13.7367C15.9789 13.8608 15.8614 13.9783 15.7373 14.0887C15.6524 14.1641 15.5984 14.2682 15.5859 14.3811L15.442 15.6756C15.1665 15.82 14.8787 15.9395 14.582 16.0328L13.565 15.2192C13.4836 15.1542 13.3825 15.1188 13.2783 15.1189H13.2508C13.0851 15.1287 12.9189 15.1287 12.7532 15.1189C12.6397 15.1121 12.5278 15.1476 12.439 15.2187L11.4197 16.0328C11.123 15.9394 10.8352 15.8199 10.5597 15.6756L10.413 14.3816C10.4004 14.2688 10.3465 14.1646 10.2616 14.0893C10.1375 13.9789 10.0199 13.8614 9.90959 13.7373C9.83422 13.6524 9.73004 13.5984 9.61721 13.5859L8.32268 13.4414C8.17832 13.1659 8.05879 12.8782 7.96551 12.5815L8.77903 11.5644C8.85007 11.4757 8.88562 11.3637 8.87879 11.2502C8.86904 11.0845 8.86904 10.9184 8.87879 10.7526C8.88562 10.6392 8.85007 10.5272 8.77903 10.4384L7.96551 9.41968C8.05886 9.12301 8.17839 8.83523 8.32268 8.55972L9.61663 8.41296C9.72947 8.40043 9.83365 8.3465 9.90902 8.2616C10.0194 8.13749 10.1369 8.01995 10.261 7.90959C10.3463 7.83417 10.4004 7.72975 10.413 7.61663L10.5569 6.32268C10.8323 6.17832 11.1201 6.05879 11.4168 5.96551L12.4339 6.77903C12.5226 6.85007 12.6346 6.88562 12.748 6.87879C12.9138 6.86904 13.0799 6.86904 13.2457 6.87879C13.3591 6.88562 13.4711 6.85007 13.5598 6.77903L14.5786 5.96551C14.8753 6.05886 15.1631 6.17839 15.4386 6.32268L15.5853 7.61663C15.5978 7.72947 15.6518 7.83365 15.7367 7.90902C15.8608 8.01937 15.9783 8.13691 16.0887 8.26103C16.1641 8.34593 16.2682 8.39986 16.3811 8.41238L17.6756 8.55628C17.82 8.83176 17.9395 9.11955 18.0328 9.41624L17.2192 10.4333C17.1475 10.5228 17.1119 10.6359 17.1195 10.7503H17.1212Z" fill="#972123" stroke="#972123" stroke-width="0.5"/>
</svg>
