<svg width="103" height="15" viewBox="0 0 103 15" fill="none" xmlns="http://www.w3.org/2000/svg">
<path d="M15.4605 5.38573C15.4133 5.24687 15.3265 5.12487 15.2108 5.03477C15.0952 4.94467 14.9556 4.89042 14.8095 4.87873L10.5337 4.53898L8.68345 0.443226C8.62453 0.31131 8.52868 0.199267 8.40749 0.120619C8.28629 0.0419709 8.14492 7.94092e-05 8.00045 1.12784e-07C7.85597 -7.91837e-05 7.71455 0.0416571 7.59327 0.120172C7.47199 0.198687 7.37602 0.310625 7.31695 0.442476L5.4667 4.53898L1.19095 4.87873C1.04729 4.89011 0.909956 4.94263 0.795369 5.03002C0.680782 5.11741 0.593798 5.23597 0.544823 5.3715C0.495848 5.50703 0.486956 5.6538 0.519212 5.79425C0.551467 5.93471 0.623503 6.06289 0.726703 6.16348L3.88645 9.24373L2.76895 14.0827C2.73502 14.2292 2.7459 14.3825 2.80017 14.5227C2.85444 14.6629 2.9496 14.7836 3.0733 14.8691C3.19701 14.9545 3.34354 15.0008 3.49389 15.002C3.64424 15.0031 3.79146 14.959 3.91645 14.8755L8.0002 12.153L12.084 14.8755C12.2117 14.9603 12.3624 15.004 12.5157 15.0006C12.669 14.9972 12.8176 14.947 12.9415 14.8567C13.0654 14.7663 13.1587 14.6402 13.2088 14.4953C13.2589 14.3503 13.2634 14.1935 13.2217 14.046L11.85 9.24598L15.252 6.18448C15.4747 5.98348 15.5565 5.66998 15.4605 5.38573Z" fill="#991C18"/>
<path d="M37.4615 5.38573C37.4143 5.24687 37.3276 5.12487 37.2119 5.03477C37.0962 4.94467 36.9567 4.89042 36.8105 4.87873L32.5347 4.53898L30.6845 0.443226C30.6256 0.31131 30.5297 0.199267 30.4085 0.120619C30.2873 0.0419709 30.146 7.94092e-05 30.0015 1.12784e-07C29.857 -7.91837e-05 29.7156 0.0416571 29.5943 0.120172C29.473 0.198687 29.3771 0.310625 29.318 0.442476L27.4677 4.53898L23.192 4.87873C23.0483 4.89011 22.911 4.94263 22.7964 5.03002C22.6818 5.11741 22.5948 5.23597 22.5459 5.3715C22.4969 5.50703 22.488 5.6538 22.5202 5.79425C22.5525 5.93471 22.6245 6.06289 22.7277 6.16348L25.8875 9.24373L24.77 14.0827C24.7361 14.2292 24.7469 14.3825 24.8012 14.5227C24.8555 14.6629 24.9506 14.7836 25.0743 14.8691C25.198 14.9545 25.3446 15.0008 25.4949 15.002C25.6453 15.0031 25.7925 14.959 25.9175 14.8755L30.0012 12.153L34.085 14.8755C34.2127 14.9603 34.3634 15.004 34.5167 15.0006C34.67 14.9972 34.8186 14.947 34.9425 14.8567C35.0664 14.7663 35.1597 14.6402 35.2098 14.4953C35.2599 14.3503 35.2644 14.1935 35.2227 14.046L33.851 9.24598L37.253 6.18448C37.4757 5.98348 37.5575 5.66998 37.4615 5.38573Z" fill="#991C18"/>
<path d="M58.545 5.38573C58.5005 5.24687 58.4185 5.12487 58.3092 5.03477C58.2 4.94467 58.0682 4.89042 57.9301 4.87873L53.8919 4.53898L52.1445 0.443226C52.0888 0.31131 51.9983 0.199267 51.8838 0.120619C51.7694 0.0419709 51.6359 7.94092e-05 51.4994 1.12784e-07C51.363 -7.91837e-05 51.2294 0.0416571 51.1149 0.120172C51.0003 0.198687 50.9097 0.310625 50.8539 0.442476L49.1064 4.53898L45.0682 4.87873C44.9325 4.89011 44.8028 4.94263 44.6946 5.03002C44.5864 5.11741 44.5042 5.23597 44.458 5.3715C44.4117 5.50703 44.4033 5.6538 44.4338 5.79425C44.4643 5.93471 44.5323 6.06289 44.6298 6.16348L47.614 9.24373L46.5586 14.0827C46.5265 14.2292 46.5368 14.3825 46.588 14.5227C46.6393 14.6629 46.7292 14.7836 46.846 14.8691C46.9628 14.9545 47.1012 15.0008 47.2432 15.002C47.3852 15.0031 47.5243 14.959 47.6423 14.8755L51.4992 12.153L55.3561 14.8755C55.4767 14.9603 55.619 15.004 55.7638 15.0006C55.9086 14.9972 56.0489 14.947 56.166 14.8567C56.283 14.7663 56.3711 14.6402 56.4184 14.4953C56.4657 14.3503 56.47 14.1935 56.4306 14.046L55.1351 9.24598L58.3481 6.18448C58.5584 5.98348 58.6356 5.66998 58.545 5.38573Z" fill="#991C18"/>
<path d="M80.4597 5.38573C80.4125 5.24687 80.3257 5.12487 80.2101 5.03477C80.0944 4.94467 79.9548 4.89042 79.8087 4.87873L75.5329 4.53898L73.6827 0.443226C73.6237 0.31131 73.5279 0.199267 73.4067 0.120619C73.2855 0.0419709 73.1441 7.94092e-05 72.9997 1.12784e-07C72.8552 -7.91837e-05 72.7138 0.0416571 72.5925 0.120172C72.4712 0.198687 72.3752 0.310625 72.3162 0.442476L70.4659 4.53898L66.1902 4.87873C66.0465 4.89011 65.9092 4.94263 65.7946 5.03002C65.68 5.11741 65.593 5.23597 65.544 5.3715C65.4951 5.50703 65.4862 5.6538 65.5184 5.79425C65.5507 5.93471 65.6227 6.06289 65.7259 6.16348L68.8857 9.24373L67.7682 14.0827C67.7342 14.2292 67.7451 14.3825 67.7994 14.5227C67.8536 14.6629 67.9488 14.7836 68.0725 14.8691C68.1962 14.9545 68.3427 15.0008 68.4931 15.002C68.6434 15.0031 68.7907 14.959 68.9157 14.8755L72.9994 12.153L77.0832 14.8755C77.2109 14.9603 77.3616 15.004 77.5149 15.0006C77.6682 14.9972 77.8168 14.947 77.9407 14.8567C78.0646 14.7663 78.1579 14.6402 78.208 14.4953C78.2581 14.3503 78.2626 14.1935 78.2209 14.046L76.8492 9.24598L80.2512 6.18448C80.4739 5.98348 80.5557 5.66998 80.4597 5.38573Z" fill="#991C18"/>
<path d="M90.8875 9.24384L89.77 14.0828C89.7354 14.2294 89.7458 14.3829 89.7998 14.5235C89.8538 14.664 89.949 14.785 90.0728 14.8706C90.1967 14.9562 90.3435 15.0025 90.494 15.0034C90.6446 15.0043 90.7919 14.9597 90.9168 14.8756L95.0005 12.1531L99.0843 14.8756C99.212 14.9604 99.3627 15.0041 99.516 15.0007C99.6693 14.9973 99.8179 14.9471 99.9418 14.8568C100.066 14.7664 100.159 14.6403 100.209 14.4954C100.259 14.3505 100.264 14.1937 100.222 14.0461L98.8503 9.24609L102.252 6.18459C102.361 6.08648 102.439 5.95859 102.476 5.81672C102.513 5.67486 102.508 5.52525 102.461 5.38639C102.414 5.24754 102.327 5.12553 102.211 5.03546C102.095 4.94538 101.956 4.89119 101.81 4.87959L97.534 4.53909L95.6838 0.443339C95.6248 0.311455 95.5289 0.199465 95.4076 0.120884C95.2864 0.0423023 95.145 0.000488281 95.0005 0.000488281C94.856 0.000488281 94.7146 0.0423023 94.5934 0.120884C94.4722 0.199465 94.3763 0.311455 94.3173 0.443339L92.467 4.53909L88.1913 4.87884C88.0476 4.89022 87.9103 4.94275 87.7957 5.03014C87.6811 5.11753 87.5941 5.23608 87.5451 5.37161C87.4962 5.50714 87.4873 5.65391 87.5195 5.79437C87.5518 5.93482 87.6238 6.063 87.727 6.16359L90.8875 9.24384ZM93.0273 5.99934C93.1611 5.98879 93.2897 5.94243 93.3995 5.8651C93.5093 5.78777 93.5962 5.68233 93.6513 5.55984L95.0005 2.57409L96.3498 5.55984C96.4048 5.68233 96.4917 5.78777 96.6015 5.8651C96.7113 5.94243 96.8399 5.98879 96.9738 5.99934L99.9528 6.23559L97.4995 8.44359C97.2865 8.63559 97.2018 8.93109 97.2798 9.20709L98.2195 12.4958L95.4175 10.6276C95.2945 10.545 95.1498 10.501 95.0016 10.501C94.8535 10.501 94.7087 10.545 94.5858 10.6276L91.6578 12.5798L92.4453 9.17034C92.4741 9.04494 92.4703 8.91422 92.434 8.79075C92.3978 8.66729 92.3303 8.55522 92.2383 8.46534L89.9598 6.24384L93.0273 5.99934Z" fill="#737477"/>
</svg>
