<svg width="40" height="40" viewBox="0 0 40 40" fill="none" xmlns="http://www.w3.org/2000/svg">
<rect x="5" y="5" width="30" height="30" fill="#FAF4F4"/>
<path d="M9.6 9.6H0V0H9.6V9.6ZM2.4 7.2H7.2V2.4H2.4V7.2Z" fill="#991C18"/>
<path d="M9.6 40H0V30.4H9.6V40ZM2.4 37.6H7.2V32.8H2.4V37.6Z" fill="#991C18"/>
<path d="M40.0004 9.6H30.4004V0H40.0004V9.6ZM32.8004 7.2H37.6004V2.4H32.8004V7.2Z" fill="#991C18"/>
<path d="M40.0004 40H30.4004V30.4H40.0004V40ZM32.8004 37.6H37.6004V32.8H32.8004V37.6Z" fill="#991C18"/>
<path d="M6.39951 8.39999H3.99951V30.8H6.39951V8.39999Z" fill="#991C18"/>
<path d="M31.5997 3.19998H9.19971V5.59998H31.5997V3.19998Z" fill="#991C18"/>
<path d="M36.7999 8.39999H34.3999V30.8H36.7999V8.39999Z" fill="#991C18"/>
<path d="M31.5997 33.6H9.19971V36H31.5997V33.6Z" fill="#991C18"/>
</svg>
