<svg width="22" height="22" viewBox="0 0 22 22" fill="none" xmlns="http://www.w3.org/2000/svg">
<path d="M17.6596 9.7309L17.5326 9.57364C16.7746 8.63539 15.9677 7.73782 15.1151 6.88466C14.2619 6.0333 13.3644 5.22755 12.4263 4.47078L12.2688 4.34376L12.4361 4.22999C14.2146 3.02051 15.8238 2.26112 17.1054 1.91537C17.746 1.74258 18.3106 1.67149 18.7767 1.70276C19.2413 1.73393 19.6234 1.86817 19.8774 2.12243L17.6596 9.7309ZM17.6596 9.7309L17.7733 9.56373C18.9828 7.78517 19.741 6.176 20.0858 4.8943C20.2581 4.25372 20.3287 3.6891 20.2971 3.22305C20.2657 2.75849 20.1314 2.37643 19.8775 2.1225L17.6596 9.7309ZM18.6832 10.9129L18.6212 10.9999L18.6832 11.0869C20.0899 13.0619 21.1451 15.0612 21.6022 16.8076C22.0603 18.5578 21.9097 20.0157 20.9668 20.9614C20.3575 21.5705 19.5367 21.85 18.5625 21.85C16.4881 21.85 13.7706 20.5939 11.0928 18.6833L11.0058 18.6213L10.9188 18.6831C8.22925 20.5939 5.51172 21.85 3.44309 21.85C2.46873 21.85 1.64901 21.5716 1.03861 20.9612C0.0929087 20.0155 -0.0590394 18.5577 0.398331 16.8076C0.854748 15.0612 1.90998 13.0619 3.31662 11.0869L3.37859 10.9999L3.31662 10.9129C1.90998 8.93789 0.854748 6.93866 0.398331 5.19224C-0.0590394 3.44218 0.0929087 1.98432 1.03861 1.03861C1.98432 0.0929087 3.44218 -0.0590394 5.19224 0.398331C6.93866 0.854748 8.93789 1.90997 10.9129 3.31662L10.9999 3.37859L11.0869 3.31662C13.0619 1.90997 15.0612 0.854748 16.8076 0.398331C18.5577 -0.0590394 20.0155 0.0929087 20.9612 1.03861C21.9069 1.98432 22.0589 3.44218 21.6015 5.19224C21.1451 6.93866 20.0899 8.93789 18.6832 10.9129ZM16.6509 11.0929L16.7244 10.9999L16.6509 10.9069C15.8364 9.87661 14.9617 8.89543 14.0313 7.96851C13.1044 7.03812 12.1232 6.16341 11.0929 5.34897L10.9997 5.27529L10.9067 5.34914C8.84774 6.98303 6.98304 8.84773 5.34915 10.9067L5.2753 10.9997L5.34897 11.0929C6.16341 12.1232 7.03812 13.1044 7.96852 14.0313C8.89543 14.9617 9.87661 15.8364 10.9069 16.6509L10.9999 16.7244L11.0929 16.6509C12.1232 15.8364 13.1044 14.9617 14.0313 14.0313C14.9617 13.1044 15.8364 12.1232 16.6509 11.0929ZM9.57252 4.4707L9.72939 4.34393L9.56284 4.23017C7.03794 2.50551 4.845 1.69464 3.44538 1.69464C2.87789 1.69464 2.41461 1.829 2.12229 2.12257C1.86841 2.37654 1.73435 2.75864 1.70324 3.22316C1.67204 3.68922 1.74307 4.25383 1.9158 4.89439C2.2614 6.17606 3.0205 7.7852 4.23 9.56373L4.34376 9.73102L4.47078 9.57356C5.22755 8.63546 6.0333 7.73794 6.88465 6.88475C7.73806 6.03391 8.63524 5.22814 9.57252 4.4707ZM1.70324 18.7767C1.73435 19.2412 1.86843 19.6234 2.12236 19.8773C2.37633 20.1316 2.7585 20.2659 3.22314 20.2971C3.68922 20.3283 4.25385 20.2573 4.89441 20.0845C6.17608 19.7387 7.78522 18.9793 9.56374 17.7698L9.73079 17.6562L9.57372 17.5292C8.6372 16.7716 7.74075 15.9658 6.88802 15.115C6.03549 14.2619 5.2286 13.3644 4.47072 12.4262L4.34368 12.2689L4.23 12.4361C3.0205 14.2146 2.2614 15.8238 1.9158 17.1054C1.74307 17.746 1.67204 18.3106 1.70324 18.7767ZM12.4261 17.5326L12.269 17.6597L19.7713 19.7713L19.8774 19.8774C19.8774 19.8774 19.8775 19.8774 19.8775 19.8773C20.1314 19.6234 20.2655 19.2412 20.2966 18.7767C20.3278 18.3106 20.2568 17.746 20.084 17.1054C19.7384 15.8238 18.9793 14.2146 17.7698 12.4361L17.6561 12.2688L17.5291 12.4263C16.7723 13.3644 15.9665 14.2619 15.1151 15.1151C14.2614 15.9671 13.3639 16.7741 12.4261 17.5326ZM12.2249 10.9999C12.2249 11.2422 12.1531 11.479 12.0185 11.6805C11.8839 11.8819 11.6925 12.039 11.4687 12.1317C11.2449 12.2244 10.9986 12.2487 10.7609 12.2014C10.5233 12.1541 10.305 12.0374 10.1337 11.8661C9.96238 11.6948 9.84571 11.4765 9.79844 11.2389C9.75118 11.0013 9.77544 10.755 9.86815 10.5311C9.96087 10.3073 10.1179 10.116 10.3193 9.98136C10.5208 9.84675 10.7576 9.7749 10.9999 9.7749C11.3248 9.7749 11.6364 9.90397 11.8661 10.1337C12.0959 10.3634 12.2249 10.675 12.2249 10.9999Z" fill="#972123" stroke="#FAF4F4" stroke-width="0.3"/>
</svg>
