<svg width="23" height="19" viewBox="0 0 23 19" fill="none" xmlns="http://www.w3.org/2000/svg">
<path d="M21.7041 5.99511L21.7046 5.99526C22.0496 6.09646 22.3517 6.30304 22.5668 6.58409C22.7818 6.8651 22.8985 7.20579 22.9 7.55596V11.4419C22.8987 11.7923 22.7821 12.1332 22.5671 12.4144C22.352 12.6957 22.0498 12.9024 21.7046 13.0037L21.7041 13.0038L18.5482 13.9485L18.4769 13.9699V14.0443V17.2725C18.4769 17.7034 18.3017 18.1171 17.9889 18.4225C17.676 18.728 17.2512 18.9 16.8077 18.9H13.2692C12.8258 18.9 12.4009 18.728 12.0881 18.4225C11.7753 18.1171 11.6 17.7034 11.6 17.2725V16.1637V16.0294L11.4713 16.0679L2.24144 18.8337C2.24125 18.8338 2.24107 18.8338 2.24089 18.8339C2.08775 18.8778 1.92893 18.9001 1.76927 18.9H1.76923C1.32576 18.9 0.900925 18.728 0.588057 18.4225C0.27527 18.1171 0.1 17.7034 0.1 17.2725V1.72538C0.100333 1.47332 0.160714 1.22469 0.276488 0.999138C0.392279 0.773552 0.560355 0.577136 0.767608 0.425563C0.97487 0.273983 1.21558 0.171449 1.47073 0.126234C1.72567 0.0810562 1.98787 0.0943689 2.23658 0.165092C2.2368 0.165153 2.23701 0.165214 2.23723 0.165275L21.7041 5.99511ZM11.5287 14.4532L11.6 14.4319V14.3574V4.64041V4.56598L11.5287 4.54462L1.79793 1.62952L1.66923 1.59096V1.72531V17.2725V17.4069L1.79793 17.3683L11.5287 14.4532ZM16.8077 17.3725H16.9077V17.2725V14.5734V14.439L16.779 14.4776L13.2405 15.5378L13.1692 15.5592V15.6336V17.2725V17.3725H13.2692H16.8077ZM13.298 13.922L21.2333 11.5423H21.3308V11.4423V11.4337V7.54688V7.44688H21.2332L13.2979 5.0758L13.1692 5.03736V5.17161V13.8262V13.9606L13.298 13.922Z" fill="#972123" stroke="#FAF4F4" stroke-width="0.2"/>
</svg>
