<svg width="11" height="11" viewBox="0 0 11 11" fill="none" xmlns="http://www.w3.org/2000/svg">
<path d="M10.2513 0.809153V7.82181C10.2513 8.03641 10.1661 8.24222 10.0144 8.39397C9.86261 8.54571 9.6568 8.63096 9.4422 8.63096C9.22759 8.63096 9.02178 8.54571 8.87004 8.39397C8.71829 8.24222 8.63304 8.03641 8.63304 7.82181V2.76461L1.38371 10.0126C1.2317 10.1646 1.02553 10.25 0.810557 10.25C0.595584 10.25 0.389415 10.1646 0.237407 10.0126C0.0853978 9.86058 0 9.65442 0 9.43944C0 9.22447 0.0853978 9.0183 0.237407 8.86629L7.48674 1.61831H2.42954C2.21494 1.61831 2.00912 1.53306 1.85738 1.38131C1.70563 1.22956 1.62038 1.02375 1.62038 0.809153C1.62038 0.594552 1.70563 0.388741 1.85738 0.236995C2.00912 0.0852497 2.21494 0 2.42954 0H9.4422C9.6568 0 9.86261 0.0852497 10.0144 0.236995C10.1661 0.388741 10.2513 0.594552 10.2513 0.809153Z" fill="white"/>
</svg>
