<svg width="41" height="43" viewBox="0 0 41 43" fill="none" xmlns="http://www.w3.org/2000/svg">
<path d="M8 19V40.5H31.5V18.5L20 10.5L8 19Z" fill="#FAF4F4"/>
<path d="M32.3517 16.9726L21.5047 9.27224V8.74952V8.59952H21.6547H26.8703C27.2282 8.59952 27.5718 8.44835 27.8234 8.17813C28.0767 7.90981 28.2185 7.54322 28.2185 7.16151V1.43801C28.2185 0.644347 27.6144 0 26.8703 0H20.1562C19.4122 0 18.8081 0.644347 18.8081 1.43801V9.27224L7.91196 17.0121C7.16618 17.5469 6.71619 18.4445 6.71441 19.4044V23.435L2.51951 25.181C0.978316 25.8385 -0.024342 27.4428 0.000449511 29.2134V41.6017L32.3517 16.9726ZM32.3517 16.9726C33.1223 17.4923 33.5953 18.3917 33.6112 19.363L32.3517 16.9726ZM37.7808 40.2877H37.6308H33.5987H33.4487V40.1377V26.4849V26.2588L33.657 26.3466L36.8439 27.6902L36.8451 27.6907C37.416 27.9372 37.7825 28.527 37.7789 29.1721V29.1719L37.7808 40.2877ZM37.7808 40.2877L37.7808 40.1377L37.7789 29.1728L37.7808 40.2877ZM37.7347 25.3191L37.767 25.3329C39.2148 25.9718 40.1676 27.4862 40.1625 29.1712V29.1717V41.562C40.1625 41.9069 40.0344 42.2345 39.808 42.476C39.5819 42.7172 39.2791 42.85 38.9644 42.85H1.34856C0.709344 42.85 0.170698 42.305 0.15045 41.5996L0.150464 29.2134L0.150435 29.2113C0.126436 27.4974 1.09688 25.9514 2.57774 25.3192C2.57795 25.3191 2.57816 25.319 2.57837 25.3189L6.77205 23.5735L6.86441 23.535V23.435L6.86441 19.4047C6.86441 19.4046 6.86441 19.4045 6.86441 19.4044C6.86618 18.4905 7.29471 17.6395 7.99904 17.1343C7.99915 17.1342 7.99926 17.1341 7.99937 17.134L18.895 9.39453L18.9581 9.34968V9.27224V1.43801C18.9581 0.717921 19.504 0.15 20.1562 0.15H26.8703C27.5226 0.15 28.0685 0.717921 28.0685 1.43801V7.16151C28.0685 7.50671 27.9402 7.83594 27.7143 8.07516L27.7136 8.07592C27.4896 8.3165 27.1854 8.44952 26.8703 8.44952H21.5047H21.3547V8.59952V9.27224V9.34971L21.4178 9.39456L32.2649 17.095L32.2648 17.095L32.2678 17.097C32.9952 17.5875 33.4456 18.4396 33.4612 19.3641V23.3936V23.4926L33.5523 23.5315L37.7347 25.3191ZM25.5351 5.8891H25.685L25.6851 5.73919L25.6869 2.86317L25.687 2.71308H25.5369H21.5048H21.3549L21.3548 2.86299L21.3531 5.73901L21.353 5.8891H21.5031H25.5351ZM3.46952 27.6903L3.46833 27.6908L2.68458 29.1721H2.53458V29.1725V40.1379V40.2879H2.68458H6.71471H6.86471V40.1379V26.485V26.259L6.65644 26.3468L3.46952 27.6903ZM9.32383 19.2806L9.26079 19.3255L9.26079 19.4028L9.26049 40.1377L9.26048 40.2877H9.41049H13.4425H13.5925V40.1377L13.5925 34.4009L13.5925 34.4002C13.5891 33.6757 13.8572 32.9836 14.3332 32.4759C14.8107 31.9666 15.455 31.6846 16.1238 31.6881H16.1246L24.1882 31.6881L24.189 31.6881C24.8577 31.6846 25.5021 31.9666 25.9796 32.4759C26.4556 32.9837 26.7236 33.6757 26.7203 34.4002V34.4009V40.1377V40.2877H26.8703H30.9023H31.0523V40.1377V19.4028V19.3255L30.9893 19.2806L20.2435 11.6351L20.1565 11.5732L20.0696 11.6351L9.32383 19.2806ZM24.1886 40.2877H24.3386L24.3386 40.1377L24.3367 34.4009L24.3366 34.2509H24.1867H16.1249H15.9749V34.4009V40.1377V40.2877H16.1249H24.1886ZM26.8703 39.9877V34.4009L30.9023 19.4028V39.9877V40.1377H30.7523H27.0203H26.8703V39.9877Z" fill="#991C18" stroke="white" stroke-width="0.3"/>
<path d="M22.9148 23.9039L22.9148 23.9039C22.5227 24.9139 21.6038 25.567 20.5846 25.567C19.1952 25.567 18.0617 24.3628 18.0617 22.8726C18.0617 21.7802 18.6768 20.8 19.621 20.383L19.621 20.383C20.5611 19.9663 21.644 20.1954 22.3671 20.9665C23.0906 21.7382 23.307 22.8971 22.9148 23.9039Z" fill="#991C18" stroke="white" stroke-width="0.1"/>
</svg>
